<?xml version="1.0" encoding="UTF-8" standalone="no"?>
<!DOCTYPE svg PUBLIC "-//W3C//DTD SVG 1.1//EN" "http://www.w3.org/Graphics/SVG/1.1/DTD/svg11.dtd">
<svg width="100%" height="100%" viewBox="0 0 1867 434" version="1.1" xmlns="http://www.w3.org/2000/svg" xmlns:xlink="http://www.w3.org/1999/xlink" xml:space="preserve" xmlns:serif="http://www.serif.com/" style="fill-rule:evenodd;clip-rule:evenodd;stroke-linejoin:round;stroke-miterlimit:1.41421;">
    <g transform="matrix(1,0,0,1,-603.7,-2364)">
        <g transform="matrix(4.16667,0,0,4.16667,0,0)">
            <g transform="matrix(1,0,0,1,261.856,664.229)">
                <path d="M0,-89.623C-3.093,-92.929 -8.827,-96.87 -18.577,-96.87L-41.736,-96.87C-56.723,-96.87 -62.163,-84.654 -62.163,-76.443L-62.163,-15.439C-62.163,-12.084 -63.485,-10.868 -64.913,-10.053C-66.516,-9.138 -68.447,-8.81 -69.083,-8.753L-92.008,-8.753C-95.193,-8.753 -97.496,-9.468 -98.851,-10.878C-100.68,-12.78 -100.998,-16.019 -100.968,-17.2L-100.954,-17.327L-100.954,-88.87C-100.954,-93.289 -104.535,-96.87 -108.954,-96.87C-113.372,-96.87 -116.954,-93.289 -116.954,-88.87L-116.954,-17.887C-117.035,-15.806 -116.979,-6.834 -110.585,0C-107.492,3.306 -101.758,7.247 -92.008,7.247L-68.695,7.247L-68.542,7.241C-59.546,6.895 -46.163,0.569 -46.163,-15.439L-46.163,-76.357C-46.11,-77.85 -45.966,-80.87 -41.736,-80.87L-18.577,-80.87C-15.392,-80.87 -13.089,-80.155 -11.734,-78.745C-9.906,-76.843 -9.588,-73.604 -9.618,-72.423L-9.632,-0.753C-9.632,3.666 -6.05,7.247 -1.632,7.247C2.787,7.247 6.368,3.666 6.368,-0.753L6.368,-71.736C6.45,-73.818 6.394,-82.789 0,-89.623" style="fill:rgb(137,197,63);fill-rule:nonzero;"/>
            </g>
        </g>
        <g transform="matrix(4.16667,0,0,4.16667,0,0)">
            <g transform="matrix(1,0,0,1,297.567,650.22)">
                <path d="M0,-59.108L4.154,-59.108L4.154,-26.568C4.154,-23.28 4.414,-20.251 4.933,-17.482C5.452,-14.712 6.389,-12.317 7.746,-10.298C9.101,-8.278 10.933,-6.707 13.241,-5.582C15.548,-4.457 18.49,-3.895 22.068,-3.895C25.645,-3.895 28.587,-4.457 30.895,-5.582C33.202,-6.707 35.034,-8.278 36.391,-10.298C37.746,-12.317 38.684,-14.712 39.203,-17.482C39.723,-20.251 39.982,-23.28 39.982,-26.568L39.982,-59.108L44.136,-59.108L44.136,-24.405C44.136,-21 43.775,-17.813 43.054,-14.842C42.332,-11.87 41.121,-9.289 39.419,-7.097C37.717,-4.903 35.452,-3.172 32.626,-1.904C29.799,-0.636 26.279,0 22.068,0C17.856,0 14.336,-0.636 11.51,-1.904C8.683,-3.172 6.417,-4.903 4.717,-7.097C3.014,-9.289 1.803,-11.87 1.082,-14.842C0.36,-17.813 0,-21 0,-24.405L0,-59.108Z" style="fill:white;fill-rule:nonzero;"/>
            </g>
        </g>
        <g transform="matrix(4.16667,0,0,4.16667,0,0)">
            <g transform="matrix(1,0,0,1,356.155,648.835)">
                <path d="M0,-57.723L4.327,-57.723L41.367,-6.231L41.367,-57.723L45.434,-57.723L45.434,0L41.108,0L4.067,-50.8L4.067,0L0,0L0,-57.723Z" style="fill:white;fill-rule:nonzero;"/>
            </g>
        </g>
        <g transform="matrix(4.16667,0,0,4.16667,0,0)">
            <g transform="matrix(1,0,0,1,0,505.947)">
                <rect x="422.474" y="85.165" width="4.154" height="57.723" style="fill:white;"/>
            </g>
        </g>
        <g transform="matrix(4.16667,0,0,4.16667,0,0)">
            <g transform="matrix(1,0,0,1,447.512,648.835)">
                <path d="M0,-57.723L4.154,-57.723L4.154,-27.606L32.539,-57.723L37.646,-57.723L15.837,-34.443L40.588,0L35.655,0L12.808,-31.328L4.154,-22.068L4.154,0L0,0L0,-57.723Z" style="fill:white;fill-rule:nonzero;"/>
            </g>
        </g>
        <g transform="matrix(4.16667,0,0,4.16667,0,0)">
            <g transform="matrix(1,0,0,1,497.272,648.835)">
                <path d="M0,-57.723L4.154,-57.723L4.154,-27.606L32.541,-57.723L37.646,-57.723L15.838,-34.443L40.588,0L35.656,0L12.809,-31.328L4.154,-22.068L4.154,0L0,0L0,-57.723Z" style="fill:white;fill-rule:nonzero;"/>
            </g>
        </g>
        <g transform="matrix(4.16667,0,0,4.16667,0,0)">
            <g transform="matrix(1,0,0,1,578.881,613.612)">
                <path d="M0,12.723L-12.029,-17.22L-24.059,12.723L0,12.723ZM-13.934,-22.5L-9.779,-22.5L13.847,35.223L9.087,35.223L1.558,16.617L-25.616,16.617L-33.059,35.223L-37.56,35.223L-13.934,-22.5Z" style="fill:white;fill-rule:nonzero;"/>
            </g>
        </g>
    </g>
</svg>
