<svg xmlns="http://www.w3.org/2000/svg" fill-rule="evenodd" stroke-linejoin="round" stroke-miterlimit="1.414" clip-rule="evenodd" viewBox="0 0 1867 434">
  <path fill="#89c53f" fill-rule="nonzero" d="M487.368 30.194C474.48 16.419 450.588-.002 409.963-.002h-96.496c-62.445 0-85.112 50.9-85.112 85.112v254.184c0 13.979-5.509 19.046-11.459 22.442-6.679 3.812-14.725 5.179-17.375 5.416h-95.52c-13.271 0-22.867-2.979-28.513-8.854-7.62-7.925-8.946-21.42-8.82-26.342l.058-.529V33.331c0-18.412-14.921-33.333-33.334-33.333C14.984-.002.06 14.918.06 33.33v295.763c-.338 8.67-.104 46.054 26.537 74.529 12.888 13.775 36.78 30.196 77.405 30.196h97.137l.638-.025c37.483-1.442 93.246-27.8 93.246-94.5V85.469c.22-6.221.82-18.805 18.445-18.805h96.496c13.271 0 22.867 2.98 28.513 8.855 7.617 7.925 8.942 21.42 8.817 26.341l-.059 298.626c0 18.412 14.925 33.333 33.334 33.333 18.412 0 33.333-14.92 33.333-33.333V104.723c.342-8.675.108-46.054-26.533-74.53"/>
  <path fill="#fff" fill-rule="nonzero" d="M636.163 98.969h17.309v135.583c0 13.7 1.083 26.32 3.246 37.858 2.162 11.542 6.066 21.521 11.72 29.934 5.646 8.416 13.28 14.962 22.896 19.65 9.613 4.687 21.871 7.029 36.78 7.029 14.904 0 27.162-2.342 36.779-7.03 9.612-4.687 17.246-11.233 22.9-19.65 5.646-8.412 9.554-18.39 11.716-29.933 2.167-11.537 3.246-24.158 3.246-37.858V98.97h17.309v144.596c0 14.187-1.505 27.466-4.509 39.845-3.008 12.384-8.054 23.138-15.146 32.271-7.091 9.142-16.529 16.354-28.304 21.638-11.779 5.283-26.446 7.933-43.991 7.933-17.55 0-32.217-2.65-43.992-7.933-11.78-5.284-21.221-12.496-28.304-21.638-7.096-9.133-12.142-19.887-15.146-32.27-3.009-12.38-4.509-25.659-4.509-39.846V98.969zM880.28 98.969h18.03l154.333 214.55V98.969h16.946V339.48h-18.025L897.226 127.814v211.667H880.28V98.97z"/>
  <path fill="#fff" d="M1156.61 98.969h17.308V339.48h-17.308z"/>
  <path fill="#fff" fill-rule="nonzero" d="M1260.935 98.969h17.308v125.487L1396.514 98.97h21.28l-90.872 97 103.13 143.512h-20.555l-95.195-130.533-36.059 38.583v91.95h-17.308V98.97zM1468.268 98.969h17.309v125.487L1603.856 98.97h21.27l-90.866 97 103.125 143.512h-20.55l-95.196-130.533-36.062 38.583v91.95h-17.309V98.97zM1808.306 245.731l-50.12-124.762-50.126 124.762h100.246zM1750.248 98.97h17.312l98.442 240.512h-19.833l-31.371-77.525h-113.225l-31.013 77.525h-18.754l98.442-240.512z"/>
</svg>