<svg width="2070" height="598" xmlns="http://www.w3.org/2000/svg" clip-rule="evenodd">
  <path fill="none" d="M-1-1h2072v600H-1z"/>
  <g>
    <rect stroke="null" rx="41" opacity=".99" height="587.563" width="2065" y="5.353" fill-opacity=".7" stroke-opacity="null" stroke-width="null" fill="#1e1e1e"/>
    <path d="M589.367 112.42c-12.888-13.775-36.78-30.196-77.405-30.196h-96.496c-62.445 0-85.112 50.9-85.112 85.112V421.52c0 13.979-5.509 19.046-11.459 22.442-6.679 3.812-14.725 5.179-17.375 5.416H206c-13.27 0-22.867-2.979-28.513-8.854-7.62-7.925-8.946-21.42-8.82-26.342l.058-.529V115.557c0-18.412-14.92-33.333-33.334-33.333-18.408 0-33.332 14.92-33.332 33.332v295.763c-.338 8.67-.104 46.054 26.537 74.529 12.888 13.775 36.78 30.196 77.405 30.196h97.137l.638-.025c37.483-1.442 93.246-27.8 93.246-94.5V167.695c.22-6.221.82-18.805 18.445-18.805h96.496c13.271 0 22.867 2.98 28.513 8.855 7.617 7.925 8.942 21.42 8.817 26.341l-.059 298.626c0 18.412 14.925 33.333 33.334 33.333 18.412 0 33.333-14.92 33.333-33.333V186.949c.342-8.675.108-46.054-26.533-74.53" fill="#89c53f"/>
    <path d="M738.16 181.195h17.31v135.583c0 13.7 1.08 26.32 3.25 37.858 2.16 11.542 6.06 21.521 11.72 29.934 5.64 8.416 13.28 14.962 22.89 19.65 9.62 4.687 21.88 7.029 36.78 7.029 14.91 0 27.17-2.342 36.78-7.03 9.62-4.687 17.25-11.233 22.9-19.65 5.65-8.412 9.56-18.39 11.72-29.933 2.17-11.537 3.25-24.158 3.25-37.858V181.196h17.3v144.596c0 14.187-1.5 27.466-4.51 39.845-3 12.384-8.05 23.138-15.14 32.271-7.09 9.142-16.53 16.354-28.31 21.638-11.77 5.283-26.44 7.933-43.99 7.933s-32.21-2.65-43.99-7.933c-11.78-5.284-21.22-12.496-28.3-21.638-7.1-9.133-12.14-19.887-15.15-32.27-3.01-12.38-4.51-25.66-4.51-39.846V181.195zm244.12 0h18.03l154.33 214.55v-214.55h16.95v240.511h-18.03L999.23 210.04v211.667h-16.95V181.195zM1258.61 181.195h17.31v240.511h-17.31V181.195zM1362.94 181.195h17.3v125.487l118.27-125.486h21.28l-90.87 97 103.13 143.512h-20.55l-95.2-130.533-36.06 38.583v91.95h-17.3V181.195zm207.33 0h17.31v125.487l118.28-125.486h21.27l-90.87 97 103.13 143.512h-20.56l-95.19-130.533-36.06 38.583v91.95h-17.31V181.195zm340.04 146.762l-50.12-124.762-50.13 124.762h100.25zm-58.06-146.761h17.31L1968 421.708h-19.83l-31.37-77.525h-113.23l-31.01 77.525h-18.75l98.44-240.512z" fill="#fff"/>
  </g>
</svg>
